<?xml version="1.0" encoding="UTF-8"?>
<svg id="Layer_1" xmlns="http://www.w3.org/2000/svg" version="1.1" viewBox="0 0 200 80">
  <!-- Generator: Adobe Illustrator 29.1.0, SVG Export Plug-In . SVG Version: 2.1.0 Build 142)  -->
  <defs>
    <style>
      .st0 {
        fill: #ccc;
        fill-rule: evenodd;
      }
    </style>
  </defs>
  <path class="st0" d="M12.01,64.04V.33h38v63.7H12.01ZM48.64,62.42V1.95H13.38v60.46h35.27,0ZM54.09,64.04V.33h38v63.7h-38ZM93.19,62.42l-.76-14.47-1.71-9.85V1.95h-35.27v45.51l-3.26,7.1,3.26,2.37v5.48h37.74ZM96.17,64.04V.33h38v63.7h-38,0ZM132.8,62.42V1.95h-35.27v60.46h35.27ZM138.24,64.04V.33h38v63.7h-38ZM174.87,62.42V1.95h-35.27v60.46h35.27Z"/>
  <path class="st0" d="M144.87,62.5l1.71-6.52h15.39l-5.15,21.76c-2.06.97-8.88,1.92-13.73,1.92-7.31,0-17.92-5.77-13.56-22.79,5.22-20.36,14.27-22.28,21.58-22.28,10.68,0,14.48,8.17,12.57,14.77h-7.46c.12-.31.16-.74.25-1.08,1.29-5.13-1.37-7.21-6.06-7.47-6.92-.39-10.67,6.11-13.02,15.81-2.54,10.47-.4,16.86,7.29,16.82,6.12-.02,5.79-1.52,5.79-1.52l2.52-9.42h-8.11,0ZM11.36,78.59H3.22l10.9-43.08h8.14s-10.74,42.2-10.9,43.08h0ZM17.71,54.53h0l15.91-19.03h10l-17.98,19.93,9.14,23.15h-8.87l-8.2-24.09v.04s0,0,0,0ZM41.06,78.59l10.95-43.09h9.25c8.37-.12,17.39-.27,15.33,13.01-1.08,6.95-6.2,13.07-17.8,13.06h-5.98s-4.29,17.02-4.29,17.02h-7.47ZM54.23,55.24c2.7,0,4.67.05,6.49.01,5.46-.12,7.13-2.36,8.36-6.75,2.14-7.62-3.33-6.82-11.52-6.81l-3.33,13.54h0ZM115.54,35.5h11.93l-9.05,43.07h-8.42l9.24-36.88-20.09,36.88h-7.07l-1.88-36.89-9.21,36.89h-6.82l11.12-43.07h11.81s1.8,22.1.42,37.26c0,0,3.51-13.38,18.01-37.26h0Z"/>
</svg>